<svg xmlns="http://www.w3.org/2000/svg" xmlns:xlink="http://www.w3.org/1999/xlink" width="88" height="49.8" viewBox="0 0 88 49.8">
  <defs>
    <style>
      .cls-1 {
        fill: url(#linear-gradient);
      }

      .cls-2 {
        fill: #107ffe;
        font-size: 8px;
        font-family: Barlow-Medium, Barlow;
        font-weight: 500;
        letter-spacing: 0.4em;
      }

      .cls-3, .cls-4 {
        fill: none;
      }

      .cls-3 {
        stroke: #616a81;
        stroke-width: 0.5px;
      }

      .cls-5 {
        filter: url(#UNIVERSITY);
      }
    </style>
    <linearGradient id="linear-gradient" x1="0.051" y1="1.66" x2="1.022" y2="-0.19" gradientUnits="objectBoundingBox">
      <stop offset="0" stop-color="#101f46"/>
      <stop offset="1" stop-color="#404b67"/>
    </linearGradient>
    <filter id="UNIVERSITY" x="0" y="27.8" width="88" height="22" filterUnits="userSpaceOnUse">
      <feOffset dy="4" input="SourceAlpha"/>
      <feGaussianBlur stdDeviation="2" result="blur"/>
      <feFlood flood-opacity="0.122"/>
      <feComposite operator="in" in2="blur"/>
      <feComposite in="SourceGraphic"/>
    </filter>
  </defs>
  <g id="SULogo" transform="translate(-5203 -2594)">
    <path id="Logo_Stirpe" class="cls-1" d="M62.738,15.486A4.986,4.986,0,0,1,60.116,12.8a1.363,1.363,0,0,1-.183-.61,4.225,4.225,0,0,1-.183-1.219V7.865a1.643,1.643,0,0,1-.427.488A5.193,5.193,0,0,1,57.8,9.389a3.944,3.944,0,0,1-.793.244,2.692,2.692,0,0,1-1.036.122H48.776v6.1H45.117V5.487H41.459v-.61A1.343,1.343,0,0,0,41.4,4.39a1.617,1.617,0,0,0-.3-.366l-.366-.244L40.3,3.658H37.74V15.852h-3.6V0h6.1a4.072,4.072,0,0,1,1.829.366A4.714,4.714,0,0,1,43.654,1.4a4.768,4.768,0,0,1,1.036,1.585,10.505,10.505,0,0,1,.427,1.28V0H55.909c.366,0,.671.061.976.061a8.012,8.012,0,0,1,.915.3A5.393,5.393,0,0,1,59.384,1.4a4.882,4.882,0,0,1,.915,1.28,5.558,5.558,0,0,1,.915-1.28A4.768,4.768,0,0,1,62.8.366a2.555,2.555,0,0,1,.915-.244A4.738,4.738,0,0,1,64.689,0h6.158a4.257,4.257,0,0,1,1.829.366A5.393,5.393,0,0,1,74.261,1.4,4.768,4.768,0,0,1,75.3,2.988a5.366,5.366,0,0,1,.3.915,4.928,4.928,0,0,1,.061.976V9.755H63.469v1.219a1.19,1.19,0,0,0,.061.427c.061.122.183.244.3.427l.366.244.427.122H75.6v3.658H64.628a4.545,4.545,0,0,1-1.89-.366ZM4.817,9.755a4.739,4.739,0,0,1-.976-.122,5.079,5.079,0,0,1-.915-.244A4.838,4.838,0,0,1,1.4,8.353,6.769,6.769,0,0,1,.366,6.707,4.893,4.893,0,0,1,0,4.878,4.928,4.928,0,0,1,.061,3.9c.061-.244.122-.549.244-.915A8.254,8.254,0,0,1,1.4,1.4,6.446,6.446,0,0,1,2.988.366,4.666,4.666,0,0,1,4.817,0H29.265V3.658h-6.1V15.852H19.51V3.658H4.817a.58.58,0,0,0-.427.122.983.983,0,0,0-.427.244l-.244.366-.061.488a.535.535,0,0,0,.061.427.983.983,0,0,0,.244.427l.427.244.427.122h6.951a4.928,4.928,0,0,1,.976.061,5.079,5.079,0,0,1,.915.244,6.2,6.2,0,0,1,1.585,1.1,5.306,5.306,0,0,1,1.1,1.585,4.75,4.75,0,0,1,.366,1.89,4.968,4.968,0,0,1-.366,1.89A3.773,3.773,0,0,1,15.3,14.45a4.19,4.19,0,0,1-1.585,1.036,4.968,4.968,0,0,1-1.89.366H0V12.194H11.767a1.149,1.149,0,0,0,.488-.122,1.276,1.276,0,0,0,.366-.244,2.581,2.581,0,0,0,.3-.427l.061-.427c0-.183-.061-.366-.061-.488-.061-.122-.183-.244-.244-.366a1.094,1.094,0,0,0-.427-.3l-.488-.061ZM48.776,6.1h7.377l.427-.122a3.5,3.5,0,0,0,.427-.244c.061-.122.244-.183.244-.366l.183-.488-.122-.427c0-.183-.122-.3-.3-.427l-.366-.244-.488-.122H48.776Zm-18.9,9.755V0h3.658V15.852ZM72.249,6.1V4.878c0-.183-.061-.3-.061-.488a1.616,1.616,0,0,0-.3-.366l-.366-.244-.427-.122H64.932a.867.867,0,0,0-.366.122l-.427.3a1.934,1.934,0,0,0-.3.366l-.122.427V6.1Z" transform="translate(5208.55 2603)"/>
    <g class="cls-5" transform="matrix(1, 0, 0, 1, 5203, 2594)">
      <text id="UNIVERSITY-2" data-name="UNIVERSITY" class="cls-2" transform="translate(6 29.8)"><tspan x="2.072" y="8">UNIVERSITY</tspan></text>
    </g>
    <path id="HR_Divider" data-name="HR Divider" class="cls-3" d="M0,0H76.762" transform="translate(5208.79 2623.129)"/>
    <path id="HR_Divider-2" data-name="HR Divider" class="cls-3" d="M0,0H76.762" transform="translate(5208.79 2633.697)"/>
    <rect id="Rectángulo_1590" data-name="Rectángulo 1590" class="cls-4" width="78" height="40" transform="translate(5208 2594)"/>
  </g>
</svg>
